PathFileType	4	(X/Y/Z)	Patient4_TMGait_0pt5_01_right_37.trc.trc
DataRate	CameraRate	NumFrames	NumMarkers	Units	OrigDataRate	OrigDataStartFrame	OrigNumFrames
74.866310160428	74.866310160428	4	33	mm	74.866310160428	106	       141
Frame#	Time	L.ASIS			Sacral			L.Shoulder			Chest			R.Shoulder			Neck			R.ASIS			R.Thigh.Superior			R.Thigh.Lateral			R.Thigh.Inferior			R.Patella			L.Thigh.Superior			L.Thigh.Lateral			L.Thigh.Inferior			L.Patella			L.Shank.Superior			L.Shank.Lateral			L.Shank.Inferior			R.Shank.Superior			R.Shank.Lateral			R.Shank.Inferior			R.Heel			R.Midfoot.Superior			R.Midfoot.Lateral			R.Toe			L.Heel			L.Midfoot.Lateral			L.Midfoot.Superior			L.Toe			L.Elbow			L.Wrist			R.Elbow			R.Wrist			
		X1	Y1	Z1	X2	Y2	Z2	X3	Y3	Z3	X4	Y4	Z4	X5	Y5	Z5	X6	Y6	Z6	X7	Y7	Z7	X8	Y8	Z8	X9	Y9	Z9	X10	Y10	Z10	X11	Y11	Z11	X12	Y12	Z12	X13	Y13	Z13	X14	Y14	Z14	X15	Y15	Z15	X16	Y16	Z16	X17	Y17	Z17	X18	Y18	Z18	X19	Y19	Z19	X20	Y20	Z20	X21	Y21	Z21	X22	Y22	Z22	X23	Y23	Z23	X24	Y24	Z24	X25	Y25	Z25	X26	Y26	Z26	X27	Y27	Z27	X28	Y28	Z28	X29	Y29	Z29	X30	Y30	Z30	X31	Y31	Z31	X32	Y32	Z32	X33	Y33	Z33	

106	50.042500000000	852.327359449555	963.784649785822	279.266642103030	629.248251933504	1019.979887791813	425.946409636587	832.324230370308	1436.116450428478	243.252447017738	921.485115766474	1366.367578980780	412.545036840992	829.483318192220	1448.221187046171	579.384944729751	826.924895667021	1502.283613852082	392.178160661320	849.170164259890	952.990471752046	554.575471758095	928.256272381236	780.705520460601	534.123107096934	882.431984449141	662.673147672624	608.863799340312	972.444584654248	618.741398361393	533.459884341452	993.559530823138	513.050298299260	558.966142590716	880.933721160853	747.811427125937	314.400668235207	782.874318928027	639.333257304316	256.269279926058	857.388970122600	556.182054976453	322.534012771793	850.710402438272	487.389984673497	335.397302604504	823.109578655575	417.836508737490	329.086729492120	731.485395654590	305.918067511127	278.368008923575	773.438603722444	195.326864077577	355.835139352967	932.687495998456	431.337786999071	565.990458695234	825.574003148223	365.472575414553	627.827745210796	836.077998724455	256.061355581439	579.798251365969	654.645741569837	145.189364098931	553.752776830248	831.729321274002	135.189167878372	594.591353591229	727.027504651791	108.638938692191	630.425409334487	924.078973153485	48.199720829449	629.598067855980	634.942844648585	42.040007306354	392.972049427988	715.264005788598	36.945849109278	319.075368058807	797.947858623244	96.485055239467	350.192092133975	926.526764628240	39.554343302724	333.099808478202	845.136356414766	1087.196856507352	109.754270672304	1029.400376795664	901.037017385322	107.033067561558	727.483655006276	1117.601744697644	696.264934077193	743.634016435544	856.511742625359	716.928537040373	
107	50.055857142857	851.951002299998	963.366586416859	279.783680850843	627.583033722692	1019.770521573618	425.214253891889	832.521434433764	1435.533458548987	243.328175939621	920.403403843249	1365.858578366845	413.324742540226	827.422285284129	1447.893763760945	579.589639432444	826.063909891818	1501.850441237131	392.274315016640	846.964024669405	952.935490770133	555.225726368700	926.447541590868	781.385032532604	534.279937395388	881.591199758562	663.255763998537	609.346839943852	971.121336990519	619.682846254322	533.391916198070	994.294851823772	515.972454711388	558.998127062222	878.512889820186	746.621078245526	315.420701965622	779.590891693962	638.926310596212	256.541847116088	852.749015334216	555.184967818885	323.398336950825	845.328968044087	486.611921791245	336.276517714876	817.652420446100	417.209463383726	329.719716133235	725.883685000513	305.589431000979	278.569890606074	766.981258599327	194.899932215023	356.245406152884	937.426859319433	432.654187389660	566.632391848171	834.695489827969	361.263317729835	629.562996639369	850.744111903871	252.547261806258	581.465936111453	675.592465399793	131.896783324724	556.959686128524	853.103060734536	131.670592329909	596.382979700104	750.503113398168	99.435123836597	633.212300595049	950.399012025985	49.861515227065	630.692227640300	628.169830441289	41.727485167117	392.990709306316	708.474487819348	36.800785913120	319.055393785629	791.099661338857	96.382620578400	350.328107499463	919.776911770308	39.582704896396	333.150917572988	849.749951963110	1087.499705986819	108.898520269941	1041.664366020041	909.286023879694	106.028370691433	716.301523237187	1120.485894684292	695.763904736787	720.358245831938	859.531151471311	719.182313308161	
108	50.069214285714	851.529409961372	962.780254356838	280.505958085115	626.039880708071	1019.381052994754	424.570128940195	832.706384426459	1434.829110735386	243.567869021107	919.293316265087	1365.256884421400	414.269689737682	825.320045563134	1447.506892635469	579.954938200078	825.178511071315	1501.296195668779	392.515286675206	844.744854590237	952.708899737138	556.031482774515	924.291771431068	781.576035363257	534.693356853941	880.025768833481	663.439351553979	610.023065172488	969.123455306345	620.080356700322	533.630249760685	994.180674304018	518.534301704408	559.236647773050	876.097237607113	745.329775803574	316.608094580727	776.316751306587	638.452651370676	256.876607904215	847.994000998695	554.109309716052	324.387938957258	839.825708308948	485.771471966988	337.244219592308	812.096391940726	416.519582021643	330.417886844128	720.233409908791	305.178679699424	278.792962966044	760.466122787860	194.405404649912	356.691422918731	941.548780189037	433.817255362897	567.407444993067	843.564295048410	356.970242856439	631.322440424066	865.371481051303	249.291623251165	583.102633335126	697.319184739551	118.963532408940	559.860135186430	874.653440779061	128.724224869440	598.114231412063	774.488761055803	90.712438602149	635.722801039036	976.673596257696	52.425878006265	631.704820701202	621.380164435700	41.329707660371	393.010026185696	701.659997307614	36.615861977752	319.021017889680	784.207553096190	96.257746151554	350.481135782157	913.010517491564	39.636117044969	333.213043338839	854.023088085209	1087.718732666671	108.244729343246	1053.309766655241	917.871767280679	105.353141992720	705.409464732207	1123.473568649077	695.348106306127	698.617717015776	863.225304509961	721.121589422742	
109	50.082571428571	851.037410026286	962.044873595718	281.444371169774	624.628908736052	1018.831785438566	424.016317164544	832.888479874772	1434.025103393149	243.971334768243	918.161629528848	1364.583229395739	415.379210256766	823.177926113092	1447.082651320089	580.466725664459	824.272681404761	1500.641070439424	392.891977589071	842.526907123680	952.324680928297	556.997758627378	921.824646245571	781.306575554702	535.400652958448	877.780716993081	663.237976246079	610.909954764387	966.541046325490	619.975250233323	534.208060791466	993.283055991154	520.726107697191	559.697475290237	873.670145800261	743.965796432659	317.981054629710	773.075363905536	637.937580237831	257.265134111937	843.148779273669	552.983648541998	325.491640473623	834.228540344396	484.890665527515	338.276601187675	806.462795055187	415.791032668772	331.161567176717	714.548467505107	304.714475459583	279.025042810475	753.912125388350	193.866585524251	357.154600050042	945.040517570017	434.850386475782	568.314050651560	852.066019650948	352.711276960726	633.039684978312	879.756306263810	246.416594268764	584.664144443932	719.507160189903	106.706691756716	562.328190095363	896.054651096315	126.455812409464	599.741049774228	798.602939289271	82.673874965581	637.849441379433	1002.478716879207	55.891853184141	632.623364869688	614.577535756910	40.884894197183	393.024694852158	694.827906548525	36.406420710588	318.974046632120	777.286069323911	96.118074264874	350.642645841768	906.230670590899	39.705975344192	333.283754832714	857.981231968472	1087.856408858000	107.802010302301	1064.273823768495	926.722069442134	105.015081251175	694.937725259895	1126.525232418363	695.030984505150	678.516951338917	867.341335196921	722.775619823366	
